<svg version="1.2" xmlns="http://www.w3.org/2000/svg" viewBox="0 0 306 606" width="306" height="606">
	<title>field-octogon</title>
	<style>
		.s0 { fill: none;stroke: #fafafa;stroke-width: 3 } 
		.s1 { fill: #fafafa } 
		.s2 { fill: #171717 } 
	</style>
	<path class="s0" d="m74.6 4.3l-70.3 70.3c-1.8 1.8-2.8 4.2-2.8 6.7v443.4c0 2.5 1 4.9 2.8 6.7l70.3 70.3c1.8 1.8 4.2 2.8 6.7 2.8h143.4c2.5 0 4.9-1 6.7-2.8l70.3-70.3c1.8-1.8 2.8-4.2 2.8-6.7v-443.4c0-2.5-1-4.9-2.8-6.7l-70.3-70.3c-1.8-1.8-4.2-2.8-6.7-2.8h-143.4c-2.5 0-4.9 1-6.7 2.8z"/>
	<path fill-rule="evenodd" class="s1" d="m162 40.5c0 4.1-3.4 7.5-7.5 7.5-4.1 0-7.5-3.4-7.5-7.5 0-4.1 3.4-7.5 7.5-7.5 4.1 0 7.5 3.4 7.5 7.5z"/>
	<path fill-rule="evenodd" class="s2" d="m157 40.5c0 1.4-1.1 2.5-2.5 2.5-1.4 0-2.5-1.1-2.5-2.5 0-1.4 1.1-2.5 2.5-2.5 1.4 0 2.5 1.1 2.5 2.5z"/>
	<path fill-rule="evenodd" class="s1" d="m162 565.5c0 4.1-3.4 7.5-7.5 7.5-4.1 0-7.5-3.4-7.5-7.5 0-4.1 3.4-7.5 7.5-7.5 4.1 0 7.5 3.4 7.5 7.5z"/>
	<path fill-rule="evenodd" class="s2" d="m157 565.5c0 1.4-1.1 2.5-2.5 2.5-1.4 0-2.5-1.1-2.5-2.5 0-1.4 1.1-2.5 2.5-2.5 1.4 0 2.5 1.1 2.5 2.5z"/>
	<path class="s0" d="m3 303h300"/>
	<path fill-rule="evenodd" class="s1" d="m157 303c0 2.2-1.8 4-4 4-2.2 0-4-1.8-4-4 0-2.2 1.8-4 4-4 2.2 0 4 1.8 4 4z"/>
</svg>